<svg width="95" height="104" viewBox="0 0 95 104" fill="none" xmlns="http://www.w3.org/2000/svg">
<g filter="url(#filter0_d_10_32)">
<path d="M61.5921 78.4405C63.5448 78.4405 65.1425 78.2929 66.3851 77.9968C67.6869 77.6418 68.7225 77.1981 69.4917 76.6656C70.2609 76.0742 70.7935 75.3933 71.0893 74.6244C71.3852 73.8553 71.5331 72.9974 71.5331 72.0508C71.5331 70.0392 70.5864 68.3826 68.6928 67.081C66.7993 65.7202 63.5448 64.2707 58.9293 62.7324C56.9175 62.0224 54.9056 61.2237 52.8937 60.3362C50.8819 59.3896 49.0771 58.2359 47.4794 56.8751C45.8818 55.4552 44.58 53.769 43.574 51.8165C42.5681 49.805 42.0651 47.3792 42.0651 44.5393C42.0651 41.6994 42.5977 39.1554 43.6628 36.9071C44.7279 34.5997 46.2368 32.6473 48.1895 31.0498C50.1422 29.4524 52.5091 28.2395 55.2902 27.4112C58.0714 26.5238 61.2075 26.08 64.6987 26.08C68.8408 26.08 72.4207 26.5238 75.4385 27.4112C78.4564 28.2987 80.9416 29.2749 82.8943 30.3399L78.9001 41.2557C77.1841 40.3682 75.261 39.5991 73.1308 38.9483C71.0597 38.2383 68.5449 37.8833 65.5863 37.8833C62.2726 37.8833 59.8761 38.3567 58.3968 39.3033C56.9766 40.1907 56.2666 41.5811 56.2666 43.4744C56.2666 44.5985 56.5328 45.5451 57.0654 46.3143C57.598 47.0834 58.3376 47.7933 59.2844 48.4442C60.2903 49.0358 61.4146 49.5979 62.6572 50.1304C63.959 50.6037 65.3792 51.1066 66.9177 51.6391C70.113 52.8224 72.8941 54.0056 75.261 55.1889C77.6279 56.313 79.5806 57.6442 81.1191 59.1825C82.7168 60.7208 83.9003 62.5253 84.6695 64.5961C85.4387 66.6669 85.8234 69.1813 85.8234 72.1395C85.8234 77.8783 83.8115 82.3454 79.7877 85.5403C75.764 88.6762 69.6988 90.2439 61.5921 90.2439C58.8702 90.2439 56.4145 90.0664 54.2251 89.7114C52.0357 89.4153 50.083 89.0312 48.367 88.5577C46.7102 88.0841 45.2604 87.5815 44.0178 87.049C42.8344 86.5165 41.8284 86.0138 41 85.5403L44.9054 74.5357C46.7397 75.5417 48.9883 76.4583 51.6511 77.2868C54.373 78.0557 57.6867 78.4405 61.5921 78.4405Z" fill="#828282"/>
<path d="M61.5921 76.3605C63.5448 76.3605 65.1425 76.2129 66.3851 75.9168C67.6869 75.5618 68.7225 75.1181 69.4917 74.5856C70.2609 73.994 70.7935 73.3135 71.0893 72.5444C71.3852 71.7753 71.5331 70.9174 71.5331 69.9708C71.5331 67.9592 70.5864 66.3026 68.6928 65.001C66.7993 63.6402 63.5448 62.1907 58.9293 60.6524C56.9175 59.9424 54.9056 59.1437 52.8937 58.2562C50.8819 57.3096 49.0771 56.1559 47.4794 54.7951C45.8818 53.3751 44.58 51.689 43.574 49.7365C42.5681 47.725 42.0651 45.2992 42.0651 42.4593C42.0651 39.6194 42.5977 37.0754 43.6628 34.8271C44.7279 32.5197 46.2368 30.5673 48.1895 28.9698C50.1422 27.3724 52.5091 26.1595 55.2902 25.3312C58.0714 24.4437 61.2075 24 64.6987 24C68.8408 24 72.4207 24.4437 75.4385 25.3312C78.4564 26.2187 80.9416 27.1949 82.8943 28.2598L78.9001 39.1757C77.1841 38.2882 75.261 37.5191 73.1308 36.8683C71.0597 36.1583 68.5449 35.8033 65.5863 35.8033C62.2726 35.8033 59.8761 36.2766 58.3968 37.2233C56.9766 38.1107 56.2666 39.5011 56.2666 41.3943C56.2666 42.5184 56.5328 43.4651 57.0654 44.2342C57.598 45.0034 58.3376 45.7133 59.2844 46.3642C60.2903 46.9558 61.4146 47.5179 62.6572 48.0503C63.959 48.5237 65.3792 49.0266 66.9177 49.559C70.113 50.7424 72.8941 51.9256 75.261 53.1089C77.6279 54.233 79.5806 55.5642 81.1191 57.1025C82.7168 58.6408 83.9003 60.4453 84.6695 62.5161C85.4387 64.5868 85.8234 67.1013 85.8234 70.0595C85.8234 75.7982 83.8115 80.2654 79.7877 83.4603C75.764 86.5962 69.6988 88.1638 61.5921 88.1638C58.8702 88.1638 56.4145 87.9863 54.2251 87.6314C52.0357 87.3353 50.083 86.9512 48.367 86.4777C46.7102 86.0041 45.2604 85.5014 44.0178 84.969C42.8344 84.4365 41.8284 83.9338 41 83.4603L44.9054 72.4557C46.7397 73.4615 48.9883 74.3785 51.6511 75.2068C54.373 75.9757 57.6867 76.3605 61.5921 76.3605Z" fill="#828282" fill-opacity="0.5"/>
<path d="M61.5921 80.5205C63.5448 80.5205 65.1425 80.3729 66.3851 80.0768C67.6869 79.7218 68.7225 79.2781 69.4917 78.7456C70.2609 78.1542 70.7935 77.4733 71.0893 76.7044C71.3852 75.9355 71.5331 75.0772 71.5331 74.1308C71.5331 72.1192 70.5864 70.4626 68.6928 69.161C66.7993 67.8002 63.5448 66.3507 58.9293 64.8124C56.9175 64.1024 54.9056 63.3037 52.8937 62.4162C50.8819 61.4696 49.0771 60.3159 47.4794 58.9551C45.8818 57.5352 44.58 55.849 43.574 53.8965C42.5681 51.885 42.0651 49.4592 42.0651 46.6193C42.0651 43.7794 42.5977 41.2354 43.6628 38.9871C44.7279 36.6797 46.2368 34.7273 48.1895 33.1298C50.1422 31.5324 52.5091 30.3195 55.2902 29.4912C58.0714 28.6037 61.2075 28.16 64.6987 28.16C68.8408 28.16 72.4207 28.6037 75.4385 29.4912C78.4564 30.3787 80.9416 31.3549 82.8943 32.4198L78.9001 43.3357C77.1841 42.4482 75.261 41.6791 73.1308 41.0283C71.0597 40.3183 68.5449 39.9633 65.5863 39.9633C62.2726 39.9633 59.8761 40.4366 58.3968 41.3833C56.9766 42.2707 56.2666 43.6611 56.2666 45.5543C56.2666 46.6784 56.5328 47.6251 57.0654 48.3942C57.598 49.1634 58.3376 49.8733 59.2844 50.5242C60.2903 51.1158 61.4146 51.6779 62.6572 52.2103C63.959 52.6837 65.3792 53.1866 66.9177 53.719C70.113 54.9024 72.8941 56.0856 75.261 57.2689C77.6279 58.393 79.5806 59.7242 81.1191 61.2625C82.7168 62.8008 83.9003 64.6053 84.6695 66.6761C85.4387 68.7468 85.8234 71.2613 85.8234 74.2195C85.8234 79.9582 83.8115 84.4254 79.7877 87.6203C75.764 90.7562 69.6988 92.3238 61.5921 92.3238C58.8702 92.3238 56.4145 92.1464 54.2251 91.7914C52.0357 91.4953 50.083 91.1112 48.367 90.6377C46.7102 90.1641 45.2604 89.6614 44.0178 89.129C42.8344 88.5965 41.8284 88.0938 41 87.6203L44.9054 76.6157C46.7397 77.6217 48.9883 78.5383 51.6511 79.3668C54.373 80.1357 57.6867 80.5205 61.5921 80.5205Z" fill="#828282" fill-opacity="0.5"/>
<path d="M38.5921 71.5205C40.5448 71.5205 42.1425 71.3729 43.3851 71.0768C44.6867 70.7218 45.7227 70.2781 46.4917 69.7456C47.2607 69.1542 47.7933 68.4733 48.0893 67.7044C48.3854 66.9355 48.5331 66.0772 48.5331 65.1308C48.5331 63.1192 47.5866 61.4626 45.6929 60.161C43.7991 58.8002 40.5448 57.3507 35.9293 55.8124C33.9175 55.1024 31.9056 54.3037 29.8937 53.4162C27.8819 52.4696 26.0771 51.3159 24.4794 49.9551C22.8818 48.5352 21.58 46.849 20.574 44.8965C19.5681 42.885 19.0651 40.4592 19.0651 37.6193C19.0651 34.7794 19.5977 32.2354 20.6628 29.9871C21.7279 27.6797 23.2368 25.7273 25.1895 24.1298C27.1422 22.5324 29.5091 21.3195 32.2902 20.4912C35.0714 19.6037 38.2075 19.16 41.6987 19.16C45.8405 19.16 49.4207 19.6037 52.4385 20.4912C55.4564 21.3787 57.9416 22.3549 59.8943 23.4198L55.9002 34.3357C54.1839 33.4482 52.261 32.6791 50.1308 32.0283C48.0595 31.3183 45.5451 30.9633 42.5863 30.9633C39.2726 30.9633 36.8761 31.4366 35.3968 32.3833C33.9766 33.2707 33.2666 34.6611 33.2666 36.5543C33.2666 37.6784 33.5328 38.6251 34.0654 39.3942C34.598 40.1634 35.3376 40.8733 36.2844 41.5242C37.2903 42.1158 38.4146 42.6779 39.6572 43.2103C40.959 43.6837 42.3789 44.1866 43.9177 44.719C47.113 45.9024 49.8943 47.0856 52.261 48.2689C54.6277 49.393 56.5804 50.7242 58.1191 52.2625C59.7168 53.8008 60.9005 55.6053 61.6695 57.6761C62.4385 59.7468 62.8234 62.2613 62.8234 65.2195C62.8234 70.9582 60.8117 75.4254 56.7877 78.6203C52.7638 81.7562 46.699 83.3238 38.5921 83.3238C35.8702 83.3238 33.4145 83.1464 31.2251 82.7914C29.0357 82.4953 27.083 82.1112 25.367 81.6377C23.7102 81.1641 22.2604 80.6614 21.0178 80.129C19.8343 79.5965 18.8284 79.0938 18 78.6203L21.9054 67.6157C23.7397 68.6217 25.9883 69.5383 28.6511 70.3668C31.373 71.1357 34.6867 71.5205 38.5921 71.5205Z" fill="black" fill-opacity="0.5"/>
<path d="M38.5921 67.3605C40.5448 67.3605 42.1425 67.2129 43.3851 66.9168C44.6867 66.5618 45.7227 66.1181 46.4917 65.5856C47.2607 64.994 47.7933 64.3135 48.0893 63.5444C48.3854 62.7753 48.5331 61.9174 48.5331 60.9708C48.5331 58.9592 47.5866 57.3026 45.6929 56.001C43.7991 54.6402 40.5448 53.1907 35.9293 51.6524C33.9175 50.9424 31.9056 50.1437 29.8937 49.2562C27.8819 48.3096 26.0771 47.1559 24.4794 45.7951C22.8818 44.3751 21.58 42.689 20.574 40.7365C19.5681 38.725 19.0651 36.2992 19.0651 33.4593C19.0651 30.6194 19.5977 28.0754 20.6628 25.8271C21.7279 23.5197 23.2368 21.5673 25.1895 19.9698C27.1422 18.3724 29.5091 17.1595 32.2902 16.3312C35.0714 15.4437 38.2075 15 41.6987 15C45.8405 15 49.4207 15.4437 52.4385 16.3312C55.4564 17.2187 57.9416 18.1949 59.8943 19.2598L55.9002 30.1757C54.1839 29.2882 52.261 28.5191 50.1308 27.8683C48.0595 27.1583 45.5451 26.8033 42.5863 26.8033C39.2726 26.8033 36.8761 27.2766 35.3968 28.2233C33.9766 29.1107 33.2666 30.5011 33.2666 32.3943C33.2666 33.5184 33.5328 34.4651 34.0654 35.2342C34.598 36.0034 35.3376 36.7133 36.2844 37.3642C37.2903 37.9558 38.4146 38.5179 39.6572 39.0503C40.959 39.5237 42.3789 40.0266 43.9177 40.559C47.113 41.7424 49.8943 42.9256 52.261 44.1089C54.6277 45.233 56.5804 46.5642 58.1191 48.1025C59.7168 49.6408 60.9005 51.4453 61.6695 53.5161C62.4385 55.5868 62.8234 58.1013 62.8234 61.0595C62.8234 66.7982 60.8117 71.2654 56.7877 74.4603C52.7638 77.5962 46.699 79.1638 38.5921 79.1638C35.8702 79.1638 33.4145 78.9863 31.2251 78.6314C29.0357 78.3353 27.083 77.9512 25.367 77.4777C23.7102 77.0041 22.2604 76.5014 21.0178 75.969C19.8343 75.4365 18.8284 74.9338 18 74.4603L21.9054 63.4557C23.7397 64.4615 25.9883 65.3785 28.6511 66.2068C31.373 66.9757 34.6867 67.3605 38.5921 67.3605Z" fill="black" fill-opacity="0.5"/>
<path d="M38.5921 69.4405C40.5448 69.4405 42.1425 69.2929 43.3851 68.9968C44.6867 68.6418 45.7227 68.1981 46.4917 67.6656C47.2607 67.0742 47.7933 66.3933 48.0893 65.6244C48.3854 64.8553 48.5331 63.9974 48.5331 63.0508C48.5331 61.0392 47.5866 59.3826 45.6929 58.081C43.7991 56.7202 40.5448 55.2707 35.9293 53.7324C33.9175 53.0224 31.9056 52.2237 29.8937 51.3362C27.8819 50.3896 26.0771 49.2359 24.4794 47.8751C22.8818 46.4552 21.58 44.769 20.574 42.8165C19.5681 40.805 19.0651 38.3792 19.0651 35.5393C19.0651 32.6994 19.5977 30.1554 20.6628 27.9071C21.7279 25.5997 23.2368 23.6473 25.1895 22.0498C27.1422 20.4524 29.5091 19.2395 32.2902 18.4112C35.0714 17.5238 38.2075 17.08 41.6987 17.08C45.8405 17.08 49.4207 17.5238 52.4385 18.4112C55.4564 19.2987 57.9416 20.2749 59.8943 21.3399L55.9002 32.2557C54.1839 31.3682 52.261 30.5991 50.1308 29.9483C48.0595 29.2383 45.5451 28.8833 42.5863 28.8833C39.2726 28.8833 36.8761 29.3567 35.3968 30.3033C33.9766 31.1907 33.2666 32.5811 33.2666 34.4744C33.2666 35.5985 33.5328 36.5451 34.0654 37.3143C34.598 38.0834 35.3376 38.7933 36.2844 39.4442C37.2903 40.0358 38.4146 40.5979 39.6572 41.1304C40.959 41.6037 42.3789 42.1066 43.9177 42.6391C47.113 43.8224 49.8943 45.0056 52.261 46.1889C54.6277 47.313 56.5804 48.6442 58.1191 50.1825C59.7168 51.7208 60.9005 53.5253 61.6695 55.5961C62.4385 57.6669 62.8234 60.1813 62.8234 63.1395C62.8234 68.8783 60.8117 73.3454 56.7877 76.5403C52.7638 79.6762 46.699 81.2439 38.5921 81.2439C35.8702 81.2439 33.4145 81.0664 31.2251 80.7114C29.0357 80.4153 27.083 80.0312 25.367 79.5577C23.7102 79.0841 22.2604 78.5815 21.0178 78.049C19.8343 77.5165 18.8284 77.0138 18 76.5403L21.9054 65.5357C23.7397 66.5417 25.9883 67.4583 28.6511 68.2868C31.373 69.0557 34.6867 69.4405 38.5921 69.4405Z" fill="black"/>
</g>
<defs>
<filter id="filter0_d_10_32" x="-8" y="-3" width="109" height="118" filterUnits="userSpaceOnUse" color-interpolation-filters="sRGB">
<feFlood flood-opacity="0" result="BackgroundImageFix"/>
<feColorMatrix in="SourceAlpha" type="matrix" values="0 0 0 0 0 0 0 0 0 0 0 0 0 0 0 0 0 0 127 0" result="hardAlpha"/>
<feOffset dx="-1" dy="4"/>
<feGaussianBlur stdDeviation="3.5"/>
<feColorMatrix type="matrix" values="0 0 0 0 0 0 0 0 0 0 0 0 0 0 0 0 0 0 0.25 0"/>
<feBlend mode="normal" in2="BackgroundImageFix" result="effect1_dropShadow_10_32"/>
<feBlend mode="normal" in="SourceGraphic" in2="effect1_dropShadow_10_32" result="shape"/>
</filter>
</defs>
</svg>
